
<svg xmlns="http://www.w3.org/2000/svg" version="1.0" width="472.000000pt" height="389.000000pt" viewBox="0 0 472.000000 389.000000" preserveAspectRatio="xMidYMid meet">

<g transform="translate(0.000000,389.000000) scale(0.100000,-0.100000)" fill="#000000" stroke="none">

<path d="M1200 2387 c-30 -16 -51 -37 -67 -67 -23 -43 -23 -47 -23 -400 0 -353 0 -357 23 -400 16 -30 37 -51 66 -67 l44 -23 626 4 c344 3 635 4 646 4 11 0 199 -2 418 -4 l399 -5 53 25 c77 35 139 97 180 179 l35 70 0 287 c0 280 -1 288 -23 330 -16 30 -37 51 -67 67 -45 24 -47 24 -295 19 -137 -3 -263 -4 -280 -4 -16 1 -246 2 -511 2 l-480 1 -42 -28 -42 -27 -42 27 -41 28 -266 3 c-263 3 -267 3 -311 -21z m585 -252 c37 -58 70 -105 74 -105 3 1 35 48 71 105 l65 105 223 0 222 0 0 -320 0 -320 -180 0 -180 0 0 98 0 97 -63 -97 -62 -97 -97 0 -96 -1 -54 87 -53 87 -3 -87 -3 -87 -184 0 -185 0 0 320 0 320 219 0 219 0 67 -105z m1075 -121 c0 -135 4 -233 10 -245 16 -29 68 -52 103 -45 58 12 57 8 57 272 l0 244 200 0 200 0 0 -254 0 -254 -33 -44 c-18 -23 -48 -53 -66 -65 -34 -23 -37 -23 -378 -23 -363 0 -364 0 -416 49 -56 51 -57 59 -57 336 l0 255 190 0 190 0 0 -226z"/>
</g>
</svg>